<mxfile host="app.diagrams.net" modified="2024-07-16T19:51:14.106Z" agent="Mozilla/5.0 (Windows NT 10.0; Win64; x64) AppleWebKit/537.36 (KHTML, like Gecko) Chrome/125.0.0.0 Safari/537.36 OPR/111.0.0.0" version="24.6.5" etag="zKn_IB-jHGSDQHxa7ivD" type="github">
  <diagram name="PÃ¡gina-1" id="Ix6nzAsi64aN-72RlZfb">
    <mxGraphModel>
      <root>
        <mxCell id="0" />
        <mxCell id="1" parent="0" />
      </root>
    </mxGraphModel>
  </diagram>
</mxfile>
